name analog
datacolumns 19
datarows 18
range 0.161 0.1695
endheader
time	ground_force_vx	ground_force_vy	ground_force_vz	ground_force_px	ground_force_py	ground_force_pz	l_ground_force_vx	l_ground_force_vy	l_ground_force_vz	l_ground_force_px	l_ground_force_py	l_ground_force_pz	ground_torque_x	ground_torque_y	ground_torque_z	l_ground_torque_x	l_ground_torque_y	l_ground_torque_z
0.161	-0.0	-0.0	-0.0	-10.437629699707031	28.28877258300781	-345.214111328125	8.565774917602539	-27.414705276489254	-306.904296875	-0.0	-0.0	-0.0	-0.0	-0.0	-0.0	92375.75	-5081.65673828125	305.400634765625
0.1615	-0.0	-0.0	-0.0	-11.255644798278809	28.669776916503903	-342.1116638183594	8.058165550231934	-27.870576858520508	-306.6524658203125	-0.0	-0.0	-0.0	-0.0	-0.0	-0.0	92543.6015625	-5077.279296875	171.78199768066406
0.162	-0.0	-0.0	-0.0	-12.052703857421877	28.140605926513672	-340.7211608886719	7.845941543579102	-27.80156707763672	-305.2165222167969	-0.0	-0.0	-0.0	-0.0	-0.0	-0.0	91856.828125	-5040.82080078125	100.68306732177734
0.1625	-0.0	-0.0	-0.0	-12.870882034301758	28.506237030029297	-339.6363220214844	8.348519325256348	-27.58086204528809	-303.1986694335937	-0.0	-0.0	-0.0	-0.0	-0.0	-0.0	91127.96875	-4955.44287109375	176.91616821289062
0.163	-0.0	-0.0	-0.0	-13.85901927947998	28.12504196166992	-339.953125	8.855990409851074	-27.20307922363281	-298.8144226074219	-0.0	-0.0	-0.0	-0.0	-0.0	-0.0	90256.96875	-4886.49853515625	398.2728271484375
0.1635	-0.0	-0.0	-0.0	-14.249224662780762	28.326248168945312	-339.5654602050781	9.274908065795898	-27.08115005493164	-295.1295471191406	-0.0	-0.0	-0.0	-0.0	-0.0	-0.0	88545.046875	-4689.78515625	409.9210815429688
0.164	-0.0	-0.0	-0.0	-14.606122016906738	27.792694091796875	-341.5582275390625	9.39430046081543	-26.569499969482425	-290.3729553222656	-0.0	-0.0	-0.0	-0.0	-0.0	-0.0	87491.2734375	-4642.2802734375	528.7369995117188
0.1645	-0.0	-0.0	-0.0	-14.387221336364746	28.06797790527344	-345.2494506835937	8.88669204711914	-26.51205062866211	-287.91973876953125	-0.0	-0.0	-0.0	-0.0	-0.0	-0.0	86946.796875	-4544.38916015625	288.078857421875
0.165	-0.0	-0.0	-0.0	-14.435760498046877	27.686901092529297	-350.4506530761719	8.112738609313965	-26.1275577545166	-287.1660461425781	-0.0	-0.0	-0.0	-0.0	-0.0	-0.0	86535.328125	-4481.27099609375	163.72274780273438
0.1655	-0.0	-0.0	-0.0	-14.550094604492188	27.736047744750977	-353.9169006347656	7.524520874023437	-26.255704879760746	-289.8288269042969	-0.0	-0.0	-0.0	-0.0	-0.0	-0.0	87300.2734375	-4619.041015625	-130.8905792236328
0.166	-0.0	-0.0	-0.0	-14.346165657043455	27.160633087158203	-357.2267761230469	7.225944519042969	-26.135168075561523	-292.938232421875	-0.0	-0.0	-0.0	-0.0	-0.0	-0.0	88298.015625	-4893.74267578125	-190.2597503662109
0.1665	-0.0	-0.0	-0.0	-14.33876895904541	26.495830535888672	-359.6326904296875	7.782388210296631	-25.757980346679688	-296.1756591796875	-0.0	-0.0	-0.0	-0.0	-0.0	-0.0	89245.609375	-5089.61328125	-117.01141357421876
0.167	-0.0	-0.0	-0.0	-14.314774513244627	25.888872146606445	-361.8189697265625	8.193168640136719	-25.16403579711914	-298.4902648925781	-0.0	-0.0	-0.0	-0.0	-0.0	-0.0	90246.859375	-5373.0986328125	12.983426094055176
0.1675	-0.0	-0.0	-0.0	-14.119271278381348	25.58042526245117	-362.9468688964844	8.15390396118164	-24.9471492767334	-301.6018371582031	-0.0	-0.0	-0.0	-0.0	-0.0	-0.0	90915.1875	-5728.48583984375	21.08454704284668
0.168	-0.0	-0.0	-0.0	-14.053962707519531	24.771642684936523	-362.45745849609375	9.079766273498535	-24.58673095703125	-304.6490783691406	-0.0	-0.0	-0.0	-0.0	-0.0	-0.0	91521.8828125	-5931.0673828125	300.0140991210937
0.1685	-0.0	-0.0	-0.0	-13.916839599609377	24.112932205200195	-362.10400390625	9.82297420501709	-24.305330276489254	-306.0451354980469	-0.0	-0.0	-0.0	-0.0	-0.0	-0.0	91464.3984375	-6042.10400390625	378.4454345703125
0.169	-0.0	-0.0	-0.0	-13.161636352539062	23.79781723022461	-359.7715148925781	10.290451049804688	-23.95895767211914	-307.2265625	-0.0	-0.0	-0.0	-0.0	-0.0	-0.0	92088.3984375	-6380.60205078125	602.5008544921875
0.1695	-0.0	-0.0	-0.0	-12.489471435546877	23.50665664672852	-359.7019958496094	10.982917785644531	-24.04064178466797	-306.83648681640625	-0.0	-0.0	-0.0	-0.0	-0.0	-0.0	92272.875	-6702.626953125	818.5711669921875
